<?xml version="1.0" encoding="utf-8"?>
<!-- Generator: Adobe Illustrator 22.0.0, SVG Export Plug-In . SVG Version: 6.00 Build 0)  -->
<svg version="1.1" xmlns="http://www.w3.org/2000/svg" xmlns:xlink="http://www.w3.org/1999/xlink" x="0px" y="0px"
	 viewBox="0 0 180 180" style="enable-background:new 0 0 180 180;" xml:space="preserve">
<style type="text/css">
	.st0{fill:#FFFFFF;}
	.st1{fill:none;stroke:#0BA94C;stroke-width:9.3255;stroke-linecap:round;stroke-miterlimit:10;}
	.st2{fill:#07A14A;}
	.st3{fill:#95C93D;}
</style>
<g id="Guides">
</g>
<g id="icon">
	<path class="st0" d="M160.4,170.5l0.3-101.6C157,66,146.6,59,132.4,59c-14.2,0-24.5,7-28.2,9.9l0,18.1h-9.7v21.9h9.7v51.7h50.1v9.8
		H160.4z"/>
	<path class="st0" d="M132.4,49c8.2,0,14.9-6.7,14.9-14.9s-6.7-14.9-14.9-14.9c-8.2,0-14.9,6.7-14.9,14.9S124.2,49,132.4,49z"/>
	<path class="st0" d="M47.7,49c8.2,0,14.9-6.7,14.9-14.9s-6.7-14.9-14.9-14.9c-8.2,0-14.9,6.7-14.9,14.9S39.5,49,47.7,49z"/>
	<path class="st0" d="M25.3,170.7v-10h50.6v-36h9.8v-21.7h-9.8v0l0,0l0-34C72.2,66,61.9,59,47.7,59c-14.2,0-24.5,7-28.2,9.9
		l0.3,101.8c-2.5,0,66,0.1,66,0.1v-0.1L25.3,170.7z"/>
	<path class="st1" d="M139.4,45.2"/>
	<g>
		<polygon class="st2" points="75.9,124.7 75.9,160.7 25.3,160.7 25.3,170.7 85.9,170.7 85.9,124.7 		"/>
		<path class="st2" d="M122.3,79.9h-11.8l9.4,13h-34l0-28.5L84.4,63c-0.4-0.4-7.5-7.2-19.3-11.1c4.6-4.5,7.4-10.8,7.4-17.7
			c0-13.7-11.1-24.9-24.9-24.9C34,9.3,22.8,20.4,22.8,34.1c0,6.9,2.9,13.2,7.4,17.7c-11.9,4-18.9,10.7-19.4,11.1l-1.5,1.5l0,96.2
			c0,5.5,4.8,10,10.3,10L19.4,68.9c3.7-2.9,14-9.9,28.2-9.9c14.2,0,24.5,7,28.2,9.9l0,34l0,0v0h44l-9.4,13h11.8l13-18L122.3,79.9z
			 M47.7,49c-8.2,0-14.9-6.7-14.9-14.9s6.7-14.9,14.9-14.9c8.2,0,14.9,6.7,14.9,14.9S55.9,49,47.7,49z"/>
	</g>
	<polygon class="st3" points="104.2,160.7 104.2,108.9 60.9,108.9 70.3,95.9 58.5,95.9 45.5,113.9 58.5,131.9 70.3,131.9 
		60.9,118.9 94.2,118.9 94.2,170.7 154.3,170.7 154.3,160.7 	"/>
	<path class="st3" d="M170.7,64.5l-1.5-1.5c-0.4-0.4-7.5-7.2-19.4-11.1c4.6-4.5,7.4-10.8,7.4-17.7c0-13.7-11.1-24.9-24.9-24.9
		c-13.7,0-24.9,11.1-24.9,24.9c0,6.9,2.9,13.2,7.4,17.7c-11.8,4-18.9,10.7-19.3,11.1l-1.5,1.5l0,22.5h10l0-18.1
		c3.7-2.9,14-9.9,28.2-9.9c14.2,0,24.5,7,28.3,9.9l-0.3,101.7c0.6,0,1.1-0.1,1.6-0.1v0.1l0.1-0.2c4.8-0.8,8.6-4.9,8.6-9.9
		L170.7,64.5z M132.4,49c-8.2,0-14.9-6.7-14.9-14.9s6.7-14.9,14.9-14.9c8.2,0,14.9,6.7,14.9,14.9S140.6,49,132.4,49z"/>
	<path class="st0" d="M162,170.5L162,170.5C162,170.5,162,170.5,162,170.5L162,170.5z"/>
</g>
</svg>
